<?xml version="1.0" standalone="no"?>
<svg viewBox="0 0 200 200" xmlns="http://www.w3.org/2000/svg">
  <path fill="#73C2FB" d="M46.4,-81.1C60.2,-72.4,71.5,-60.1,79.7,-46C88,-31.9,93.1,-15.9,93.1,0C93.1,15.9,87.9,31.8,79.3,45.2C70.6,58.6,58.5,69.4,44.7,77.9C30.9,86.4,15.4,92.5,-0.1,92.6C-15.6,92.8,-31.2,86.9,-44.3,78.1C-57.5,69.2,-68.1,57.3,-75.3,43.8C-82.5,30.3,-86.2,15.2,-86.4,-0.1C-86.5,-15.3,-83,-30.6,-76,-44.4C-68.9,-58.1,-58.3,-70.4,-45,-79.4C-31.8,-88.4,-15.9,-94.1,0.2,-94.5C16.3,-94.8,32.6,-89.8,46.4,-81.1Z" transform="translate(100 100)" />
</svg>
